<?xml version="1.0" encoding="utf-8"?>
<!-- Generator: Adobe Illustrator 24.1.1, SVG Export Plug-In . SVG Version: 6.00 Build 0)  -->
<svg version="1.1" id="Layer_1" xmlns="http://www.w3.org/2000/svg" xmlns:xlink="http://www.w3.org/1999/xlink" x="0px" y="0px"
	 viewBox="0 0 64 64" style="enable-background:new 0 0 64 64;" xml:space="preserve">
<style type="text/css">
	.st0{fill:#FFFFFF;}
</style>
<g transform="translate(0.000000,64.000000) scale(0.100000,-0.100000)">
	<g id="XMLID_1_">
		<g>
			<path class="st0" d="M585,340c42,0,55-3,55-15s-13-15-55-15h-55v-90v-90H430c-99,0-100,0-95-23c5.5-22.8,1-35.6-18.8-43L310,80
				v65v38.6h20.8c0-26,28.6-29.3,167.2-23.6c10,0,12,37,10,168l-3,167l20.7,0.7L528,428l3-88H585z"/>
			<path class="st0" d="M280,240c52,0,55-4,51-52c-0.2-1.5-0.2-3-0.2-4.4H310V210h-36c-27,0-37-5-41-20c-5-18-14-20-113-20H13l-7,41
				c-4,22-4,44-1,50c4,5,55,9,116,9c90,0,109-3,109-15C230,244,242,240,280,240z"/>
			<path class="st0" d="M270,80h40l6.2-16c-8.9-3.3-20.8-5.5-36.2-7c-32-3-46-9-48-20c-3-15-19-17-113-17H10v50v50h110
				c103,0,110-1,110-20C230,83,237,80,270,80z"/>
			<path class="st0" d="M430,520l95-5l0.7-19.3L505,495l-73,3c-73,3-104-7-101-32c5-41-1-46-50-46c-41,0-50-3-54-20
				c-5-19-12-21-109-18l-103,3l-3,48l-3,47h109c102,0,110-1,115-21c4-16,12-20,39-17l33,3l3,63l3,62l2.3,18.8
				c15-2.4,16.6-9.5,18.7-30.8l3-33L430,520z"/>
			<path class="st0" d="M283,590c13.8,0,23.4-0.1,30.3-1.2L311,570h-39c-31,0-41-4-45-20c-5-19-12-21-109-18l-103,3l-3,48l-3,47h109
				c101,0,110-2,115-20C237,594,247,590,283,590z"/>
		</g>
		<g>
		</g>
	</g>
</g>
</svg>
