<?xml version="1.0" standalone="no"?>
<!DOCTYPE svg PUBLIC "-//W3C//DTD SVG 20010904//EN"
 "http://www.w3.org/TR/2001/REC-SVG-20010904/DTD/svg10.dtd">
<svg version="1.0" xmlns="http://www.w3.org/2000/svg"
 width="64.000000pt" height="64.000000pt" viewBox="0 0 64.000000 64.000000"
 preserveAspectRatio="xMidYMid meet">

<g transform="translate(0.000000,64.000000) scale(0.100000,-0.100000)"
fill="#000000" stroke="none">
<path d="M465 598 c-15 -12 -42 -24 -60 -27 l-32 -6 22 -78 23 -77 -30 -25
c-36 -31 -53 -32 -37 -4 25 47 -32 95 -81 69 -18 -10 -21 -19 -18 -50 4 -41 3
-41 -49 -2 -32 24 -53 23 -53 -3 0 -22 48 -72 75 -79 l25 -6 0 -131 c0 -106 3
-131 15 -135 8 -4 22 -1 29 5 11 9 15 9 18 0 2 -7 11 -10 21 -6 19 7 21 31 17
175 -2 78 0 92 14 92 21 0 86 58 86 77 0 9 -6 21 -14 27 -7 6 -16 23 -20 39
-5 21 -3 27 10 27 10 0 32 11 50 25 18 14 44 25 58 25 23 0 24 1 14 38 -16 57
-38 65 -83 30z m65 -14 c14 -36 13 -44 -8 -44 -10 0 -33 -11 -52 -25 -43 -32
-58 -31 -71 2 -9 25 0 42 23 43 4 0 24 11 44 25 46 31 52 31 64 -1z m-220
-466 c-1 -28 -2 -30 -11 -15 -6 10 -8 25 -5 33 9 24 16 16 16 -18z"/>
</g>
</svg>
