<?xml version="1.0" standalone="no"?>
<!DOCTYPE svg PUBLIC "-//W3C//DTD SVG 20010904//EN"
 "http://www.w3.org/TR/2001/REC-SVG-20010904/DTD/svg10.dtd">
<svg version="1.0" xmlns="http://www.w3.org/2000/svg"
 width="64.000000pt" height="64.000000pt" viewBox="0 0 64.000000 64.000000"
 preserveAspectRatio="xMidYMid meet">

<g transform="translate(0.000000,64.000000) scale(0.100000,-0.100000)"
fill="#000000" stroke="none">
<path d="M80 445 l-74 -75 44 -45 44 -45 28 27 28 27 0 -117 0 -117 175 0 175
0 0 117 0 117 28 -26 27 -26 45 44 45 44 -75 75 c-68 69 -78 75 -115 75 -28 0
-46 -6 -57 -20 -33 -38 -128 -38 -148 0 -8 15 -21 20 -53 20 -40 0 -48 -5
-117 -75z m208 -147 l-2 -93 -3 78 c-4 78 -4 79 -28 73 -14 -4 -25 -4 -25 -2
0 4 49 34 58 36 1 0 1 -42 0 -92z m100 61 c17 -31 10 -116 -12 -137 -15 -15
-17 -15 -33 1 -13 13 -18 34 -18 76 0 85 33 116 63 60z"/>
<path d="M347 364 c-14 -14 -8 -121 8 -134 12 -10 15 -7 20 12 15 60 -5 145
-28 122z"/>
</g>
</svg>
