<?xml version="1.0" encoding="utf-8"?>
<!-- Generator: Adobe Illustrator 24.1.1, SVG Export Plug-In . SVG Version: 6.00 Build 0)  -->
<svg version="1.1" id="Layer_1" xmlns="http://www.w3.org/2000/svg" xmlns:xlink="http://www.w3.org/1999/xlink" x="0px" y="0px"
	 viewBox="0 0 64 64" style="enable-background:new 0 0 64 64;" xml:space="preserve">
<style type="text/css">
	.st0{fill:#FFFFFF;}
</style>
<g transform="translate(0.000000,64.000000) scale(0.100000,-0.100000)">
	<g id="XMLID_1_">
		<g>
			<path class="st0" d="M500,335c0-108-1-115-20-115s-20,7-20,97c0,75-3,94-12,85c-16-16-25-15-32,3c-3,9,5,20,22,29
				C497,467,500,462,500,335z"/>
			<path class="st0" d="M320,300c15,0,20-5,18-17c-2-10-10-18-18-18s-16,8-18,18C300,295,305,300,320,300z"/>
			<path class="st0" d="M335,380c0-22-29-18-33,3c-3,14,1,18,15,15C327,396,335,388,335,380z"/>
			<path class="st0" d="M219,321c6-11,11-34,11-51c0-26-6-33-35-46c-43-18-98-7-103,20c-3,16,1,17,35,12c46-8,66,4,61,35
				c-2,18-11,25-33,29c-38,7-48,40-12,40c14,0,30,7,37,16c11,12,10,18-3,31c-13,14-21,14-42,5c-21-10-27-9-32,4c-3,9,0,20,8,25
				c26,16,85,10,103-10c15-17,16-25,6-55C212,351,212,335,219,321z"/>
			<path class="st0" d="M170,65c0,25-4,45-10,45c-5,0-10-20-10-45s5-45,10-45C166,20,170,40,170,65z M488,68c3,33,0,42-13,42
				s-16-9-13-42c2-24,8-43,13-43C481,25,486,44,488,68z M22,333l1.9,139.7l28.3-0.4C51.5,438.5,51.4,384,52,325l3-170h265h265h25
				v-45h-50h-50V60V10h-35h-35v50v50H315H190V60c0-49-1-50-30-50s-30,1-30,50v50H75H20L22,333z"/>
			<path class="st0" d="M23.9,472.7L25,555l43,3c39,3,42,5,42,33v29h70h70v-30v-30h64c63,0,65,1,68,28s4,27,73,27s70,0,73-27
				c3-25,7-28,43-28h39V335V155h-25v180v180l-263,3c-208,2-264,0-268-11c-0.8-2.6-1.4-15.2-1.8-34.7L23.9,472.7z"/>
		</g>
		<g>
		</g>
	</g>
</g>
</svg>
