<?xml version="1.0" encoding="utf-8"?>
<!-- Generator: Adobe Illustrator 24.1.1, SVG Export Plug-In . SVG Version: 6.00 Build 0)  -->
<svg version="1.1" id="Layer_1" xmlns="http://www.w3.org/2000/svg" xmlns:xlink="http://www.w3.org/1999/xlink" x="0px" y="0px"
	 viewBox="0 0 64 64" style="enable-background:new 0 0 64 64;" xml:space="preserve">
<style type="text/css">
	.st0{fill:#FCFCFC;}
</style>
<g transform="translate(0.000000,64.000000) scale(0.100000,-0.100000)">
	<g id="XMLID_1_">
		<g>
			<path class="st0" d="M561,315c-0.9-4.3-6.3-24.5-12.9-46.8L535,272c14,47,13,51-8,84c-16.5,25-39.4,35.5-60.8,33l-1.7,11.9
				c34.6,9.3,35.5,12.4,35.5,53.1c0,44-18,70-67,95c-8.2,4.1-16,7.7-20.7,9.3l3.3,9c121.3-43.6,188.8-184.2,155.7-318.8l-9.6,2.3
				c4.8,18.2,7.1,40.4,5.3,51.2C565,315,562,321,561,315z"/>
			<path class="st0" d="M396,75c-48.5-14.4-97.6-13.9-142.6-1l2.7,9.4c11.3-3.6,30.1-5.4,56.9-5.4c66-1,106,10,86,23
				c-8.9,5.6-41.3,8.4-74.1,8.6L325,125c56,0,60,1,79,34c19,34,19,34,0,70c-1.1,2.2-2.2,4.2-3.2,6.2l13.9,5.2
				c1.3-2.3,2.8-4.8,4.3-7.4c19-30,21-31,60-21c38,10,42,14,56,60l13.1-3.8c-1-3.4-2-6.8-3.1-10.2c-16-55-3-66,15-13
				c0.6,1.9,1.2,3.8,1.7,5.8l9.6-2.3c-1-4.2-2.1-8.3-3.3-12.5C549,173,467,95,396,75z"/>
			<path class="st0" d="M330,484.2c0.1-36.3,4.3-41.4,46-67.2c41-25,49-26,85-17c1.2,0.3,2.3,0.6,3.5,0.9l1.7-11.9
				c-24.1-2.9-46.2-22.2-55.2-56c-13.9-48.4-14.1-61.3,3.7-92.6l-13.9-5.2c-15.4,28.9-21.4,30-75.8,32.8l-61,3l-22-39l-8.4-14.8
				l-12.1,6.8c2.6,4.5,5.3,9.8,8.5,16c20,40,20,43,5,90c-11,33-23,50-38,54c-3.2,0.9-6.2,1.6-9.1,2.3l2.4,10.6
				c1.5-0.2,3.1-0.6,4.7-0.9c23-5,41,0,78,24c41,26,47,34,47,64L330,484.2z"/>
			<path class="st0" d="M301,530c-57,30-68,30-116-1c-15.1-9.7-25.4-16.3-32.1-22.3l-6.4,6.7c20.2,19.9,43.3,36.3,68.5,47.6
				c46,20,146,24,196,8c1.5-0.5,3.1-1.1,4.6-1.7l-3.3-9c-2.1,0.7-3.7,1-4.3,0.7c-2,0-20-8-40-17c-35-16-38-20-38-57
				c0-0.3,0-0.6,0-0.8l-10-0.2C320,509,314,522,301,530z"/>
			<path class="st0" d="M112,268c7-24,20-43,32-48c53.9-19.7,62.4-22.5,77.5,4l12.1-6.8L220,193l23-34c22-32,26-34,82-34l-0.1-15.4
				c-37.5,0.3-75.6-2.7-79.9-8.6c-4.7-7.8-1.2-13.7,11.1-17.6l-2.7-9.4C182.8,93.8,122,143.8,88,213.9l9.1,4.4
				c10.2-20.7,13.2,2.3,1.9,45.7c-0.8,3.1-1.5,6.2-2.4,9.3l12.9,3C110.3,273.7,111.1,270.9,112,268z"/>
			<path class="st0" d="M144,457c7.7-47,10.7-52.6,46.3-60.1l-2.4-10.6c-33.3,7.8-47.6,1.4-66.9-25.3
				c-22.7-32.1-24.8-39.3-11.5-84.7l-12.9-3C90.8,294.7,83.4,313.4,79,316c-9,5-2-46,13-85c1.9-5.3,3.6-9.5,5.1-12.7l-9.1-4.4
				c-7.8,16-14.2,33.1-19,51.1c-22.9,83.3,12,184.2,77.5,248.4l6.4-6.7C138.6,494.2,139.9,484.8,144,457z"/>
		</g>
		<g>
		</g>
	</g>
</g>
</svg>
